HIERARCHY
ROOT Hips
{
	OFFSET 0.000000 0.000000 0.000000
	CHANNELS 6 Xposition Yposition Zposition Xrotation Yrotation Zrotation
	JOINT LeftUpLeg_virtual
	{
		OFFSET 0.000000 0.000000 0.000000
		CHANNELS 3 Xrotation Yrotation Zrotation
		JOINT LeftUpLeg
		{
			OFFSET 11.394100 -6.187798 -0.413800
			CHANNELS 3 Xrotation Yrotation Zrotation
			JOINT LeftLeg
			{
				OFFSET 0.430247 -32.302673 3.732800
				CHANNELS 3 Xrotation Yrotation Zrotation
				JOINT LeftFoot
				{
					OFFSET -0.430247 -48.264931 -6.423300
					CHANNELS 3 Xrotation Yrotation Zrotation
					JOINT LeftToeBase
					{
						OFFSET 4.230900 -16.068199 23.438400
						CHANNELS 3 Xrotation Yrotation Zrotation
						JOINT LeftToe_End
						{
							OFFSET 4.510700 0.695400 19.974600
							CHANNELS 3 Xrotation Yrotation Zrotation
							End Site
							{
								OFFSET 0 0 0
							}
						}
					}
				}
			}
		}
	}
	JOINT RightUpLeg_virtual
	{
		OFFSET 0.000000 0.000000 0.000000
		CHANNELS 3 Xrotation Yrotation Zrotation
		JOINT RightUpLeg
		{
			OFFSET -11.333700 -6.187798 -0.413800
			CHANNELS 3 Xrotation Yrotation Zrotation
			JOINT RightLeg
			{
				OFFSET -0.430392 -32.302628 3.733000
				CHANNELS 3 Xrotation Yrotation Zrotation
				JOINT RightFoot
				{
					OFFSET 0.430392 -48.264973 -6.423500
					CHANNELS 3 Xrotation Yrotation Zrotation
					JOINT RightToeBase
					{
						OFFSET -4.230900 -16.068199 23.438400
						CHANNELS 3 Xrotation Yrotation Zrotation
						JOINT RightToe_End
						{
							OFFSET -4.510700 0.695400 19.974600
							CHANNELS 3 Xrotation Yrotation Zrotation
							End Site
							{
								OFFSET 0 0 0
							}
						}
					}
				}
			}
		}
	}
	JOINT Spine_virtual
	{
		OFFSET 0.000000 0.000000 0.000000
		CHANNELS 3 Xrotation Yrotation Zrotation
		JOINT Spine
		{
			OFFSET -0.002400 12.777504 0.315300
			CHANNELS 3 Xrotation Yrotation Zrotation
			JOINT Spine1
			{
				OFFSET -0.002067 5.816869 0.032633
				CHANNELS 3 Xrotation Yrotation Zrotation
				JOINT Spine1_split
				{
					OFFSET -0.002067 5.816869 0.032633
					CHANNELS 3 Xrotation Yrotation Zrotation
					JOINT Spine2
					{
						OFFSET -0.002067 5.816869 0.032633
						CHANNELS 3 Xrotation Yrotation Zrotation
						JOINT Neck_virtual
						{
							OFFSET 0.000000 0.000000 0.000000
							CHANNELS 3 Xrotation Yrotation Zrotation
							JOINT Neck
							{
								OFFSET -0.003700 21.199493 -0.826900
								CHANNELS 3 Xrotation Yrotation Zrotation
								JOINT Head
								{
									OFFSET 0.000000 20.442200 4.834800
									CHANNELS 3 Xrotation Yrotation Zrotation
									JOINT HeadTop_End
									{
										OFFSET 0.000000 34.668396 4.968400
										CHANNELS 3 Xrotation Yrotation Zrotation
										End Site
										{
											OFFSET 0 0 0
										}
									}
								}
							}
						}
						JOINT LeftShoulder_virtual
						{
							OFFSET 0.000000 0.000000 0.000000
							CHANNELS 3 Xrotation Yrotation Zrotation
							JOINT LeftShoulder
							{
								OFFSET 3.288150 8.794197 -1.372250
								CHANNELS 3 Xrotation Yrotation Zrotation
								JOINT LeftShoulder_split
								{
									OFFSET 3.288150 8.794197 -1.372250
									CHANNELS 3 Xrotation Yrotation Zrotation
									JOINT LeftArm
									{
										OFFSET 11.953299 -2.279007 -0.146200
										CHANNELS 3 Xrotation Yrotation Zrotation
										JOINT LeftForeArm
										{
											OFFSET 18.448900 0.000000 0.000000
											CHANNELS 3 Xrotation Yrotation Zrotation
											JOINT LeftHand
											{
												OFFSET 29.527798 0.000000 0.000000
												CHANNELS 3 Xrotation Yrotation Zrotation
												End Site
												{
													OFFSET 0 0 0
												}
											}
										}
									}
								}
							}
						}
						JOINT RightShoulder_virtual
						{
							OFFSET 0.000000 0.000000 0.000000
							CHANNELS 3 Xrotation Yrotation Zrotation
							JOINT RightShoulder
							{
								OFFSET -3.249400 8.794197 -1.372250
								CHANNELS 3 Xrotation Yrotation Zrotation
								JOINT RightShoulder_split
								{
									OFFSET -3.249400 8.794197 -1.372250
									CHANNELS 3 Xrotation Yrotation Zrotation
									JOINT RightArm
									{
										OFFSET -11.953299 -2.279007 -0.146200
										CHANNELS 3 Xrotation Yrotation Zrotation
										JOINT RightForeArm
										{
											OFFSET -18.448900 0.000000 0.000000
											CHANNELS 3 Xrotation Yrotation Zrotation
											JOINT RightHand
											{
												OFFSET -29.527802 0.000000 0.000000
												CHANNELS 3 Xrotation Yrotation Zrotation
												End Site
												{
													OFFSET 0 0 0
												}
											}
										}
									}
								}
							}
						}
					}
				}
			}
		}
	}
}
MOTION
Frames: 7
Frame Time: 0.03333333
0.031070 91.362640 -0.028690 0.000000 0.000000 0.000000 -1.735757 -17.065964 -1.909288 -41.934739 16.307992 15.461106 49.494232 0.935549 8.337510 -8.595290 0.599357 -7.458824 -0.000045 0.000003 -0.000002 0.000000 0.000000 0.000000 -1.735757 -17.065964 -1.909288 -36.383260 -21.458605 -15.333186 48.149043 -3.043982 -10.216228 -12.431638 -1.475164 11.365166 -0.044155 0.000010 -0.000006 0.000000 0.000000 0.000000 -1.735757 -17.065964 -1.909288 3.883816 2.410476 -0.401596 2.929113 2.056187 -0.138334 0.000000 0.000000 0.000000 0.000000 0.000000 0.000000 2.894090 2.113000 -0.161224 1.137081 0.245404 5.249916 -1.998749 7.430612 1.905184 0.000000 0.000000 0.000000 2.894090 2.113000 -0.161224 1.375474 -4.867612 21.431194 0.000000 0.000000 0.000000 -66.234270 -43.614866 -65.822034 -0.000009 -37.698396 -0.000006 0.000000 0.000000 0.000000 2.894090 2.113000 -0.161224 0.445411 -0.777910 -3.588727 0.000000 0.000000 0.000000 -96.770694 65.301137 91.341759 0.000002 28.227451 0.000008 0.000000 0.000000 0.000000 
0.043760 91.387100 -0.043545 0.000000 0.000000 0.000000 -1.626495 -16.983306 -1.944155 -42.098605 16.424044 15.378724 49.437842 0.848225 8.597891 -8.542096 0.600977 -7.481225 -0.000045 0.000003 -0.000002 0.000000 0.000000 0.000000 -1.626495 -16.983306 -1.944155 -36.220070 -21.123077 -14.986975 47.962664 -3.546774 -10.214600 -12.352610 -1.496479 11.557036 -0.041689 0.000010 0.000000 0.000000 0.000000 0.000000 -1.626495 -16.983306 -1.944155 3.801866 2.363278 -0.435907 2.860567 2.025404 -0.161203 0.000000 0.000000 0.000000 0.000000 0.000000 0.000000 2.825897 2.080953 -0.184224 1.012361 0.275951 5.218361 -1.628340 7.575837 2.118157 0.000000 0.000000 0.000000 2.825897 2.080953 -0.184224 1.196430 -4.307693 21.316489 0.000000 0.000000 0.000000 -66.220303 -44.104697 -66.348758 0.000011 -37.562335 0.000011 0.000000 0.000000 0.000000 2.825897 2.080953 -0.184224 0.420647 -0.879267 -3.679279 0.000000 0.000000 0.000000 -97.395684 65.635359 92.333373 0.000007 28.079222 -0.000006 0.000000 0.000000 0.000000 
0.053864 91.413147 -0.064140 0.000000 0.000000 0.000000 -1.539063 -16.888017 -1.976786 -42.227986 16.525912 15.274239 49.368751 0.767568 8.855851 -8.479892 0.606513 -7.507834 -0.000045 0.000004 -0.000002 0.000000 0.000000 0.000000 -1.539063 -16.888017 -1.976786 -36.050667 -20.802465 -14.662376 47.780284 -4.060042 -10.212542 -12.273783 -1.513921 11.742483 -0.038299 0.000005 0.000004 0.000000 0.000000 0.000000 -1.539063 -16.888017 -1.976786 3.711386 2.308270 -0.471004 2.785399 1.989156 -0.186987 0.000000 0.000000 0.000000 0.000000 0.000000 0.000000 2.751001 2.043541 -0.210102 0.881318 0.314079 5.181897 -1.262386 7.714977 2.379159 0.000000 0.000000 0.000000 2.751001 2.043541 -0.210102 1.017815 -3.758634 21.178236 0.000000 0.000000 0.000000 -66.257855 -44.789631 -66.874013 0.000010 -37.199990 0.000012 0.000000 0.000000 0.000000 2.751001 2.043541 -0.210102 0.404732 -0.938106 -3.847633 0.000000 0.000000 0.000000 -97.861236 65.982332 93.157230 0.000001 27.935726 -0.000008 0.000000 0.000000 0.000000 
0.055872 91.442047 -0.072147 0.000000 0.000000 0.000000 -1.520662 -16.842009 -2.005125 -42.251373 16.647015 15.185901 49.286693 0.710775 9.082445 -8.437405 0.612937 -7.546200 -0.000045 0.000003 -0.000002 0.000000 0.000000 0.000000 -1.520662 -16.842009 -2.005125 -35.870883 -20.568319 -14.426229 47.629600 -4.412526 -10.211953 -12.215825 -1.526874 11.869456 -0.034291 -0.000029 0.000001 0.000000 0.000000 0.000000 -1.520662 -16.842009 -2.005125 3.633194 2.274132 -0.485300 2.720136 1.964030 -0.202784 0.000000 0.000000 0.000000 0.000000 0.000000 0.000000 2.686126 2.016988 -0.225833 0.805622 0.333319 5.151569 -0.868450 7.768655 2.595073 0.000000 0.000000 0.000000 2.686126 2.016988 -0.225833 0.892475 -3.360369 20.911729 0.000000 0.000000 0.000000 -66.351818 -45.583443 -67.374284 0.000011 -36.601041 0.000005 0.000000 0.000000 0.000000 2.686126 2.016988 -0.225833 0.404619 -0.911847 -4.116136 0.000000 0.000000 0.000000 -97.947563 66.311739 93.575743 0.000004 27.811123 -0.000011 0.000000 0.000000 0.000000 
0.062312 91.468285 -0.067032 0.000000 0.000000 0.000000 -1.550633 -16.851786 -2.022221 -42.212191 16.819438 15.120294 49.210741 0.665539 9.289132 -8.421951 0.613420 -7.582250 -0.000045 0.000004 -0.000002 0.000000 0.000000 0.000000 -1.550633 -16.851786 -2.022221 -35.711197 -20.403915 -14.283888 47.519511 -4.601214 -10.213128 -12.173625 -1.533597 11.947637 -0.030297 -0.000002 0.000001 0.000000 0.000000 0.000000 -1.550633 -16.851786 -2.022221 3.584986 2.265782 -0.489991 2.678028 1.954682 -0.211602 0.000000 0.000000 0.000000 0.000000 0.000000 0.000000 2.644456 2.006185 -0.234602 0.771466 0.337467 5.138728 -0.468690 7.780812 2.717876 0.000000 0.000000 0.000000 2.644456 2.006185 -0.234602 0.815015 -3.082166 20.528308 0.000000 0.000000 0.000000 -66.428439 -46.419076 -67.774929 0.000004 -35.955229 0.000010 0.000000 0.000000 0.000000 2.644456 2.006185 -0.234602 0.419421 -0.806304 -4.465733 0.000000 0.000000 0.000000 -97.703568 66.581169 93.623445 -0.000001 27.694759 -0.000001 0.000000 0.000000 0.000000 
0.072264 91.488182 -0.058418 0.000000 0.000000 0.000000 -1.580098 -16.871411 -2.029420 -42.185014 17.017614 15.065616 49.152220 0.609582 9.490855 -8.417152 0.608832 -7.608732 -0.000045 0.000003 -0.000002 0.000000 0.000000 0.000000 -1.580098 -16.871411 -2.029420 -35.593287 -20.277899 -14.192256 47.440179 -4.729923 -10.214716 -12.141654 -1.533135 12.006649 -0.026020 0.000017 -0.000001 0.000000 0.000000 0.000000 -1.580098 -16.871411 -2.029420 3.539917 2.260450 -0.504527 2.637118 1.947493 -0.222790 0.000000 0.000000 0.000000 0.000000 0.000000 0.000000 2.604092 1.997330 -0.245805 0.718406 0.348362 5.125109 -0.090360 7.838707 2.798633 0.000000 0.000000 0.000000 2.604092 1.997330 -0.245805 0.743494 -2.807917 20.151245 0.000000 0.000000 0.000000 -66.508837 -47.286943 -68.149169 -0.000013 -35.325855 -0.000005 0.000000 0.000000 0.000000 2.604092 1.997330 -0.245805 0.435962 -0.695855 -4.817861 0.000000 0.000000 0.000000 -97.464771 66.838025 93.651258 -0.000002 27.564116 0.000002 0.000000 0.000000 0.000000 
0.077913 91.502014 -0.050903 0.000000 0.000000 0.000000 -1.597558 -16.882867 -2.026847 -42.179772 17.214344 15.016874 49.107148 0.544945 9.681724 -8.413457 0.599560 -7.630208 -0.000045 0.000003 -0.000002 0.000000 0.000000 0.000000 -1.597558 -16.882867 -2.026847 -35.514590 -20.180180 -14.132549 47.386326 -4.834490 -10.215979 -12.121397 -1.527388 12.053505 -0.021959 -0.000010 -0.000005 0.000000 0.000000 0.000000 -1.597558 -16.882867 -2.026847 3.488816 2.247910 -0.526876 2.591979 1.934538 -0.238927 0.000000 0.000000 0.000000 0.000000 0.000000 0.000000 2.559614 1.982531 -0.261822 0.659627 0.357059 5.115563 0.335491 7.901885 2.849079 0.000000 0.000000 0.000000 2.559614 1.982531 -0.261822 0.669505 -2.514810 19.790664 0.000000 0.000000 0.000000 -66.608012 -48.211693 -68.546242 0.000001 -34.642808 -0.000003 0.000000 0.000000 0.000000 2.559614 1.982531 -0.261822 0.455459 -0.574685 -5.193520 0.000000 0.000000 0.000000 -97.244443 67.110434 93.686317 -0.000002 27.418114 0.000001 0.000000 0.000000 0.000000 
